# xmcd
#
# Track frame offsets:
#	150
#	24435
#	38465
#	56259
#	76494
#	95791
#	126357
#	146960
#	155313
#	176831
#	197932
#	208749
#	227585
#	248547
#	273733
#	313448
#	329022
#	343783
#
# Disc length: 4731 seconds
#
# Revision: 0
# Processed by: cddbd v1.5.1PL2 Copyright (c) Steve Scherf et al.
# Submitted via: dBpowerAMP V4.0
#
DISCID=12127912
DTITLE=Stevie Ray Vaughan and Double Trouble - The Essential [CD2]
DYEAR=2002
DGENRE=Blues
TTITLE0=Say what!
TTITLE1=Look at little sister
TTITLE2=Change it
TTITLE3=Come on (part III)
TTITLE4=Life without you
TTITLE5=Little wing
TTITLE6=Willie the wimp (live)
TTITLE7=Scuttle Buttin`
TTITLE8=Leave my girl alone (live)
TTITLE9=Superstition (live)
TTITLE10=The house is rockin´
TTITLE11=Crossfire
TTITLE12=Tightrope
TTITLE13=Wall of Denial
TTITLE14=Riviera paradise
TTITLE15=Telephone song (The Vaughan Brothers)
TTITLE16=Long way from home (The Vaughan Brothers)
TTITLE17=Life by the drop
EXTD=
EXTT0=
EXTT1=
EXTT2=
EXTT3=
EXTT4=
EXTT5=
EXTT6=
EXTT7=
EXTT8=
EXTT9=
EXTT10=
EXTT11=
EXTT12=
EXTT13=
EXTT14=
EXTT15=
EXTT16=
EXTT17=
PLAYORDER=
